HIERARCHY
ROOT Hips
{
	OFFSET 0.00000 0.00000 0.00000
	CHANNELS 6 Xposition Yposition Zposition Zrotation Yrotation Xrotation 
	JOINT LHipJoint
	{
		OFFSET 0 0 0
		CHANNELS 3 Zrotation Yrotation Xrotation
		JOINT LeftUpLeg
		{
			OFFSET 1.75344 -1.53157 0.77399
			CHANNELS 3 Zrotation Yrotation Xrotation
			JOINT LeftLeg
			{
				OFFSET 2.25415 -6.19323 0.00000
				CHANNELS 3 Zrotation Yrotation Xrotation
				JOINT LeftFoot
				{
					OFFSET 2.30342 -6.32861 0.00000
					CHANNELS 3 Zrotation Yrotation Xrotation
					JOINT LeftToeBase
					{
						OFFSET 0.10958 -0.30108 1.49206
						CHANNELS 3 Zrotation Yrotation Xrotation
						End Site
						{
							OFFSET 0.00000 -0.00000 0.77783
						}
					}
				}
			}
		}
	}
	JOINT RHipJoint
	{
		OFFSET 0 0 0
		CHANNELS 3 Zrotation Yrotation Xrotation
		JOINT RightUpLeg
		{
			OFFSET -1.81912 -1.53156 0.77399
			CHANNELS 3 Zrotation Yrotation Xrotation
			JOINT RightLeg
			{
				OFFSET -2.22882 -6.12365 0.00000
				CHANNELS 3 Zrotation Yrotation Xrotation
				JOINT RightFoot
				{
					OFFSET -2.21943 -6.09785 0.00000
					CHANNELS 3 Zrotation Yrotation Xrotation
					JOINT RightToeBase
					{
						OFFSET -0.18931 -0.52012 1.59379
						CHANNELS 3 Zrotation Yrotation Xrotation
						End Site
						{
							OFFSET -0.00000 -0.00000 0.84686
						}
					}
				}
			}
		}
	}
	JOINT LowerBack
	{
		OFFSET 0 0 0
		CHANNELS 3 Zrotation Yrotation Xrotation
		JOINT Spine
		{
			OFFSET -0.00200 1.66634 -0.14248
			CHANNELS 3 Zrotation Yrotation Xrotation
			JOINT Spine1
			{
				OFFSET -0.00875 1.64542 0.09514
				CHANNELS 3 Zrotation Yrotation Xrotation
				JOINT Neck
				{
					OFFSET 0 0 0
					CHANNELS 3 Zrotation Yrotation Xrotation
					JOINT Neck1
					{
						OFFSET 0.02257 1.59605 0.00839
						CHANNELS 3 Zrotation Yrotation Xrotation
						JOINT Head
						{
							OFFSET -0.10214 1.57530 -0.23335
							CHANNELS 3 Zrotation Yrotation Xrotation
							End Site
							{
								OFFSET -0.03588 1.60717 -0.08062
							}
						}
					}
				}
				JOINT LeftShoulder
				{
					OFFSET 0 0 0
					CHANNELS 3 Zrotation Yrotation Xrotation
					JOINT LeftArm
					{
						OFFSET 2.54983 1.10186 0.40078
						CHANNELS 3 Zrotation Yrotation Xrotation
						JOINT LeftForeArm
						{
							OFFSET 4.28840 -0.00000 0.00000
							CHANNELS 3 Zrotation Yrotation Xrotation
							JOINT LeftHand
							{
								OFFSET 3.06552 -0.00000 -0.00000
								CHANNELS 3 Zrotation Yrotation Xrotation
								JOINT LeftFingerBase
								{
									OFFSET 0 0 0
									CHANNELS 3 Zrotation Yrotation Xrotation
									JOINT LeftHandIndex1
									{
										OFFSET 0.75304 -0.00000 0.00000
										CHANNELS 3 Zrotation Yrotation Xrotation
										End Site
										{
											OFFSET 0.60712 -0.00000 0.00000
										}
									}
								}
								JOINT LThumb
								{
									OFFSET 0 0 0
									CHANNELS 3 Zrotation Yrotation Xrotation
									End Site
									{
										OFFSET 0.61639 -0.00000 0.61639
									}
								}
							}
						}
					}
				}
				JOINT RightShoulder
				{
					OFFSET 0 0 0
					CHANNELS 3 Zrotation Yrotation Xrotation
					JOINT RightArm
					{
						OFFSET -2.60909 1.35448 0.21802
						CHANNELS 3 Zrotation Yrotation Xrotation
						JOINT RightForeArm
						{
							OFFSET -4.52172 -0.00000 -0.00000
							CHANNELS 3 Zrotation Yrotation Xrotation
							JOINT RightHand
							{
								OFFSET -2.89140 -0.00000 0.00000
								CHANNELS 3 Zrotation Yrotation Xrotation
								JOINT RightFingerBase
								{
									OFFSET 0 0 0
									CHANNELS 3 Zrotation Yrotation Xrotation
									JOINT RightHandIndex1
									{
										OFFSET -0.68054 -0.00000 0.00000
										CHANNELS 3 Zrotation Yrotation Xrotation
										End Site
										{
											OFFSET -0.54867 -0.00000 0.00000
										}
									}
								}
								JOINT RThumb
								{
									OFFSET 0 0 0
									CHANNELS 3 Zrotation Yrotation Xrotation
									End Site
									{
										OFFSET -0.55705 -0.00000 0.55705
									}
								}
							}
						}
					}
				}
			}
		}
	}
}
MOTION
Frames: 7
Frame Time: .0083333
9.5836 15.3416 -38.1345 -362.0340 -0.0073 2.1086 0.0000 0.0000 0.0000 -15.5870 -17.7284 -12.6247 3.4443 11.3817 33.5782 1.5881 1.8543 -24.5439 0.9546 -6.2219 -17.4295 0.0000 0.0000 0.0000 32.7110 20.7504 1.3527 -1.5517 -7.8621 22.2961 0.7160 -24.1937 -29.3195 -0.0805 -1.8306 5.0376 0.1023 1.0621 5.8072 0.4640 1.4304 1.1950 0.3128 0.7133 -2.0339 -4.1787 -2.7102 0.0743 4.3575 -3.4045 -9.8540 2.2424 -1.6894 -3.0318 0.0000 0.0000 0.0000 -88.6261 4.3362 14.0069 18.3598 -28.6154 -4.7203 -0.0000 -0.0000 17.2118 2.0357 -37.1686 -1.2302 -7.1250 0.0000 -0.0000 -16.8281 -5.8178 19.2589 0.0000 0.0000 0.0000 85.4049 -0.6688 38.0356 -17.7879 27.8848 -4.4496 0.0000 0.0000 19.3126 -4.4612 -49.2248 3.3813 7.1250 -0.0000 -0.0000 59.4292 -71.4440 -41.5199
9.5807 15.3430 -38.1427 -361.9780 -0.3114 2.2518 0.0000 0.0000 0.0000 -15.5800 -17.6003 -12.7709 3.4263 11.3551 33.4870 1.5861 2.1269 -24.6430 1.0605 -6.5476 -18.3817 0.0000 0.0000 0.0000 32.5611 20.7931 1.1242 -1.5560 -7.8726 22.3278 0.6664 -23.8798 -29.1655 -0.0854 -1.8848 5.1874 0.0147 1.1043 5.5174 0.5294 1.4802 1.4945 0.4350 0.7384 -1.5686 -4.0298 -2.7324 -1.1461 4.1078 -3.4081 -9.7245 2.0981 -1.6791 -2.7666 0.0000 0.0000 0.0000 -88.7639 3.0663 14.0414 18.3439 -28.5953 -4.7127 -0.0000 -0.0000 17.0091 3.2624 -36.9152 -1.9609 -7.1250 0.0000 -0.0000 -16.1821 -5.7004 18.4272 0.0000 0.0000 0.0000 85.2429 0.2714 38.0585 -17.9065 28.0373 -4.5052 0.0000 0.0000 18.7202 -4.5653 -49.7476 3.4873 7.1250 -0.0000 -0.0000 60.7539 -71.7252 -42.9467
9.5766 15.3431 -38.1569 -361.9940 -0.4695 2.3423 0.0000 0.0000 0.0000 -15.4885 -17.5204 -12.9092 3.4155 11.3391 33.4322 1.5779 2.1698 -24.6002 1.1167 -6.7131 -18.8682 0.0000 0.0000 0.0000 32.5344 20.9351 0.9600 -1.5608 -7.8841 22.3625 0.7070 -23.9203 -28.9277 -0.0752 -1.7687 4.8670 -0.0029 1.0704 5.3819 0.6216 1.4359 1.4289 0.5444 0.7165 -1.5629 -3.9380 -2.6274 -0.7690 3.8775 -3.2918 -10.0771 2.0212 -1.6191 -2.9649 0.0000 0.0000 0.0000 -88.8797 2.7114 14.1749 18.4910 -28.7814 -4.7833 -0.0000 -0.0000 16.5160 4.1025 -37.2897 -2.4882 -7.1250 0.0000 -0.0000 -15.7669 -6.1504 18.0283 0.0000 0.0000 0.0000 85.1474 0.4725 37.7807 -18.1335 28.3278 -4.6124 0.0000 0.0000 17.6948 -3.7418 -50.3559 2.8830 7.1250 -0.0000 -0.0000 62.9940 -71.7020 -44.8340
9.5734 15.3393 -38.1655 -362.0330 -0.6717 2.1271 0.0000 0.0000 0.0000 -15.4812 -17.2750 -12.6979 3.4095 11.3302 33.4017 1.5743 2.1585 -24.5680 1.1900 -6.9224 -19.4855 0.0000 0.0000 0.0000 32.6498 20.8771 1.1513 -1.5623 -7.8878 22.3737 0.7110 -23.8646 -28.8040 -0.0675 -1.6762 4.6115 -0.0429 1.0571 5.5348 0.7498 1.4188 1.4249 0.6965 0.7081 -1.6564 -3.9516 -2.5129 -0.4198 3.7019 -3.1637 -10.2275 1.9749 -1.5510 -3.0888 0.0000 -0.0000 0.0000 -89.0360 2.4978 14.3504 18.7004 -29.0447 -4.8846 -0.0000 -0.0000 15.9447 5.3304 -37.7722 -3.2709 -7.1250 0.0000 -0.0000 -15.1626 -6.7558 17.4292 0.0000 -0.0000 0.0000 85.0025 0.5407 37.6772 -18.0457 28.2156 -4.5708 0.0000 0.0000 18.2405 -5.0371 -48.8501 3.7971 7.1250 -0.0000 -0.0000 58.0095 -71.4641 -40.3628
9.5681 15.3383 -38.1711 -362.0730 -0.8331 2.0421 0.0000 0.0000 0.0000 -15.4254 -17.0968 -12.6257 3.4016 11.3185 33.3616 1.5846 2.1031 -24.6215 1.2162 -6.9954 -19.7016 0.0000 0.0000 0.0000 32.7232 20.8242 1.2122 -1.5622 -7.8875 22.3728 0.6621 -23.6538 -28.8220 -0.0690 -1.6952 4.6642 -0.1333 0.9799 5.4621 0.9682 1.3151 1.4200 0.9799 0.6567 -1.6266 -4.3192 -2.3706 -0.1650 3.6524 -2.9972 -10.2295 2.0269 -1.4548 -3.1417 0.0000 -0.0000 0.0000 -89.3958 2.1454 14.3384 18.8734 -29.2611 -4.9688 -0.0000 -0.0000 15.5136 6.7326 -37.6987 -4.1290 -7.1250 0.0000 -0.0000 -14.4318 -6.8601 16.5571 0.0000 -0.0000 0.0000 84.6520 0.6398 37.8245 -17.9803 28.1320 -4.5400 0.0000 0.0000 18.5200 -6.3890 -48.9547 4.8271 7.1250 -0.0000 -0.0000 57.2522 -71.9950 -40.3117
9.5624 15.3385 -38.1769 -362.0440 -0.9344 1.9604 0.0000 0.0000 0.0000 -15.4577 -17.0372 -12.5018 3.3897 11.3006 33.3006 1.5980 2.0443 -24.6971 1.2046 -6.9633 -19.6067 0.0000 0.0000 0.0000 32.7150 20.7379 1.2283 -1.5668 -7.8985 22.4061 0.6205 -23.4628 -28.8210 -0.0718 -1.7286 4.7562 -0.1901 0.9822 5.3256 1.0077 1.3129 1.7180 1.0580 0.6540 -1.2466 -4.1437 -2.3632 -1.0113 3.4840 -2.9649 -10.0965 1.9165 -1.4350 -2.9435 0.0000 0.0000 0.0000 -89.3717 1.0966 14.7059 19.0300 -29.4559 -5.0456 -0.0000 -0.0000 15.0473 7.9354 -37.4882 -4.8490 -7.1250 0.0000 -0.0000 -13.7895 -6.8170 15.7672 0.0000 0.0000 0.0000 84.6688 1.4152 37.5056 -17.9299 28.0674 -4.5162 0.0000 0.0000 18.5139 -6.9036 -49.1640 5.2340 7.1250 -0.0000 -0.0000 57.4318 -72.2826 -40.7689
9.5591 15.3394 -38.1820 -361.9480 -0.9711 1.8211 0.0000 0.0000 0.0000 -15.6060 -17.0587 -12.2759 3.3731 11.2758 33.2157 1.5883 2.1627 -24.6746 1.2292 -7.0314 -19.8086 0.0000 0.0000 0.0000 32.6035 20.4603 1.2084 -1.5729 -7.9132 22.4507 0.5702 -23.2117 -28.7910 -0.0838 -1.8670 5.1383 -0.2724 0.9639 5.6690 1.0054 1.2854 1.6513 1.0970 0.6411 -1.5076 -3.7958 -2.3527 -1.3378 3.1422 -2.9629 -9.8509 1.7295 -1.4354 -2.8069 0.0000 0.0000 0.0000 -89.3065 0.8672 15.0574 19.2922 -29.7801 -5.1752 -0.0000 -0.0000 14.5011 9.0251 -37.7127 -5.5494 -7.1250 0.0000 -0.0000 -13.2417 -7.1869 15.1816 0.0000 0.0000 0.0000 84.7822 1.5795 37.0549 -17.8356 27.9461 -4.4719 0.0000 0.0000 18.7709 -7.3997 -49.2132 5.6159 7.1250 -0.0000 -0.0000 57.1933 -72.4853 -40.7867
